<svg width="76" height="76" viewBox="0 0 76 76" fill="none" xmlns="http://www.w3.org/2000/svg">
<path fill-rule="evenodd" clip-rule="evenodd" d="M74.5875 1.5375C74.8785 1.82779 75.1094 2.17263 75.2669 2.55229C75.4245 2.93195 75.5056 3.33896 75.5056 3.75C75.5056 4.16105 75.4245 4.56806 75.2669 4.94771C75.1094 5.32737 74.8785 5.67222 74.5875 5.9625L5.8375 74.7125C5.25071 75.2993 4.45485 75.6289 3.625 75.6289C2.79515 75.6289 1.99929 75.2993 1.4125 74.7125C0.825707 74.1257 0.496052 73.3298 0.496052 72.5C0.496052 71.6702 0.825707 70.8743 1.4125 70.2875L70.1625 1.5375C70.4528 1.24648 70.7976 1.01559 71.1773 0.858048C71.5569 0.700508 71.964 0.619415 72.375 0.619415C72.786 0.619415 73.193 0.700508 73.5727 0.858048C73.9524 1.01559 74.2972 1.24648 74.5875 1.5375Z" fill="#A8A7A0"/>
<path fill-rule="evenodd" clip-rule="evenodd" d="M1.4125 1.5375C1.12148 1.82779 0.890589 2.17263 0.733048 2.55229C0.575508 2.93195 0.494415 3.33896 0.494415 3.75C0.494415 4.16105 0.575508 4.56806 0.733048 4.94771C0.890589 5.32737 1.12148 5.67222 1.4125 5.9625L70.1625 74.7125C70.7493 75.2993 71.5452 75.6289 72.375 75.6289C73.2048 75.6289 74.0007 75.2993 74.5875 74.7125C75.1743 74.1257 75.5039 73.3298 75.5039 72.5C75.5039 71.6702 75.1743 70.8743 74.5875 70.2875L5.8375 1.5375C5.54722 1.24648 5.20237 1.01559 4.82271 0.858048C4.44306 0.700508 4.03605 0.619415 3.625 0.619415C3.21396 0.619415 2.80695 0.700508 2.42729 0.858048C2.04763 1.01559 1.70279 1.24648 1.4125 1.5375Z" fill="#A8A7A0"/>
</svg>
